<?xml version="1.0" standalone="no"?>
<!DOCTYPE svg PUBLIC "-//W3C//DTD SVG 20010904//EN"
 "http://www.w3.org/TR/2001/REC-SVG-20010904/DTD/svg10.dtd">
<svg version="1.0" xmlns="http://www.w3.org/2000/svg"
 width="235.000000pt" height="235.000000pt" viewBox="0 0 235.000000 235.000000"
 preserveAspectRatio="xMidYMid meet">
<metadata>
Created by potrace 1.11, written by Peter Selinger 2001-2013
</metadata>
<g transform="translate(0.000000,235.000000) scale(0.100000,-0.100000)"
fill="#000000" stroke="none">
<path d="M1033 2315 c-67 -21 -153 -64 -179 -90 -7 -6 -25 -23 -42 -37 -34
-28 -105 -129 -123 -173 -31 -80 -47 -166 -43 -247 3 -98 26 -177 90 -314 83
-177 94 -253 51 -348 l-24 -53 51 2 c28 1 61 5 74 9 15 5 22 3 22 -6 -1 -23
-37 -92 -59 -112 -11 -11 -21 -22 -21 -26 0 -4 24 -6 54 -6 53 1 54 1 50 -24
-2 -14 -11 -68 -19 -120 -9 -52 -32 -165 -51 -250 -47 -208 -53 -287 -26 -333
46 -73 183 -119 357 -120 147 -1 254 28 326 85 71 58 73 206 5 418 -27 83 -45
124 -107 246 -52 104 -54 110 -30 98 14 -8 34 -14 43 -14 16 0 16 3 0 43 -10
23 -18 47 -17 52 4 48 24 96 76 190 156 281 191 350 220 446 29 93 31 226 5
314 -48 161 -182 306 -335 360 -69 24 -90 27 -186 30 -70 2 -106 -3 -162 -20z"/>
<path d="M1632 313 c-10 -4 -7 -9 8 -20 12 -8 24 -12 27 -9 3 3 -2 8 -11 12
-9 3 -13 10 -10 15 6 10 5 10 -14 2z"/>
<path d="M1625 270 c-3 -5 -1 -10 4 -10 6 0 11 5 11 10 0 6 -2 10 -4 10 -3 0
-8 -4 -11 -10z"/>
<path d="M1623 235 c0 -7 6 -11 14 -8 7 3 13 6 13 8 0 2 -6 5 -13 8 -8 3 -14
-1 -14 -8z"/>
</g>
</svg>
